<svg width="32" height="32" viewBox="0 0 32 32" fill="none" xmlns="http://www.w3.org/2000/svg"><defs><linearGradient id="roadrunnerGradient" x1="0%" y1="0%" x2="100%" y2="100%"><stop offset="0%" style="stop-color:#e94560;stop-opacity:1" /><stop offset="100%" style="stop-color:#f39c12;stop-opacity:1" /></linearGradient></defs><ellipse cx="16" cy="18" rx="12" ry="8" fill="url(#roadrunnerGradient)" opacity="0.8"/><circle cx="24" cy="12" r="6" fill="url(#roadrunnerGradient)"/><polygon points="28,12 32,10 32,14" fill="#f39c12"/><circle cx="26" cy="10" r="1.5" fill="#ffffff"/><circle cx="26.5" cy="9.5" r="0.5" fill="#000000"/><line x1="12" y1="24" x2="10" y2="30" stroke="#e94560" stroke-width="2"/><line x1="16" y1="24" x2="14" y2="30" stroke="#e94560" stroke-width="2"/><line x1="20" y1="24" x2="22" y2="30" stroke="#e94560" stroke-width="2"/><ellipse cx="9" cy="30" rx="2" ry="1" fill="#e94560"/><ellipse cx="13" cy="30" rx="2" ry="1" fill="#e94560"/><ellipse cx="23" cy="30" rx="2" ry="1" fill="#e94560"/><polygon points="4,16 8,14 6,20" fill="#3498db" opacity="0.7"/><polygon points="2,18 6,16 4,22" fill="#27ae60" opacity="0.7"/><line x1="0" y1="8" x2="6" y2="8" stroke="#ffffff" stroke-width="1" opacity="0.5"/><line x1="0" y1="12" x2="4" y2="12" stroke="#ffffff" stroke-width="1" opacity="0.5"/><line x1="0" y1="16" x2="5" y2="16" stroke="#ffffff" stroke-width="1" opacity="0.5"/></svg>
